<?xml version="1.0" encoding="UTF-8" standalone="no"?>
<!-- Created with Inkscape (http://www.inkscape.org/) -->

<svg
   xmlns:dc="http://purl.org/dc/elements/1.1/"
   xmlns:cc="http://creativecommons.org/ns#"
   xmlns:rdf="http://www.w3.org/1999/02/22-rdf-syntax-ns#"
   xmlns:svg="http://www.w3.org/2000/svg"
   xmlns="http://www.w3.org/2000/svg"
   xmlns:sodipodi="http://sodipodi.sourceforge.net/DTD/sodipodi-0.dtd"
   xmlns:inkscape="http://www.inkscape.org/namespaces/inkscape"
   width="206.42236mm"
   height="170.53609mm"
   viewBox="0 0 731.41782 604.26172"
   id="svg2"
   version="1.1"
   inkscape:version="0.91 r"
   sodipodi:docname="retro_spocker.svg">
  <defs
     id="defs4" />
  <sodipodi:namedview
     id="base"
     pagecolor="#ffffff"
     bordercolor="#666666"
     borderopacity="1.0"
     inkscape:pageopacity="0.0"
     inkscape:pageshadow="2"
     inkscape:zoom="1"
     inkscape:cx="340.42857"
     inkscape:cy="310.26456"
     inkscape:document-units="px"
     inkscape:current-layer="g4219"
     showgrid="false"
     inkscape:showpageshadow="false"
     showborder="false"
     inkscape:object-paths="false"
     inkscape:object-nodes="false"
     inkscape:snap-others="false"
     inkscape:snap-nodes="true"
     inkscape:window-width="1920"
     inkscape:window-height="1056"
     inkscape:window-x="0"
     inkscape:window-y="24"
     inkscape:window-maximized="1"
     fit-margin-top="0"
     fit-margin-left="0"
     fit-margin-right="0"
     fit-margin-bottom="0" />
  <metadata
     id="metadata7">
    <rdf:RDF>
      <cc:Work
         rdf:about="">
        <dc:format>image/svg+xml</dc:format>
        <dc:type
           rdf:resource="http://purl.org/dc/dcmitype/StillImage" />
        <dc:title></dc:title>
      </cc:Work>
    </rdf:RDF>
  </metadata>
  <g
     inkscape:label="Layer 1"
     inkscape:groupmode="layer"
     id="layer1"
     transform="translate(61.080969,-105.93359)">
    <g
       id="g4219"
       transform="matrix(1,-0.17866616,0,1,0,54.426703)">
      <path
         style="color:#000000;font-style:normal;font-variant:normal;font-weight:normal;font-stretch:normal;font-size:medium;line-height:normal;font-family:sans-serif;text-indent:0;text-align:start;text-decoration:none;text-decoration-line:none;text-decoration-style:solid;text-decoration-color:#000000;letter-spacing:normal;word-spacing:normal;text-transform:none;direction:ltr;block-progression:tb;writing-mode:lr-tb;baseline-shift:baseline;text-anchor:start;white-space:normal;clip-rule:nonzero;display:inline;overflow:visible;visibility:visible;opacity:1;isolation:auto;mix-blend-mode:normal;color-interpolation:sRGB;color-interpolation-filters:linearRGB;solid-color:#000000;solid-opacity:1;fill:#ffffff;fill-opacity:1;fill-rule:nonzero;stroke:none;stroke-width:15;stroke-linecap:butt;stroke-linejoin:round;stroke-miterlimit:4;stroke-dasharray:none;stroke-dashoffset:0;stroke-opacity:1;color-rendering:auto;image-rendering:auto;shape-rendering:auto;text-rendering:auto;enable-background:accumulate"
         d="m 304.62891,105.93359 c -3.50665,0 -6.04166,0.92871 -8.95899,1.96289 -2.91733,1.03419 -5.96586,2.32458 -8.93945,3.59571 -5.94718,2.54225 -12.7128,4.88177 -12.75977,4.88672 -0.0466,0.005 -7.15094,-0.87839 -13.49609,-2.12891 -3.17258,-0.62527 -6.42375,-1.25107 -9.49219,-1.65625 -3.06843,-0.40518 -5.73976,-0.78771 -9.16992,-0.0586 -3.43011,0.72908 -5.71693,2.16502 -8.35547,3.7832 -2.63854,1.61818 -5.35181,3.51336 -7.99609,5.375 -5.28856,3.72328 -11.42204,7.41906 -11.4668,7.43359 -0.0452,0.0151 -7.17616,0.62813 -13.64258,0.72461 -3.23321,0.0482 -6.54336,0.1117 -9.6289,0.35352 -3.08554,0.24182 -5.77913,0.42341 -8.98243,1.84961 -3.20331,1.4262 -5.14043,3.30629 -7.38476,5.4375 -2.24433,2.1312 -4.5058,4.54749 -6.70508,6.91797 -4.39855,4.74095 -9.62682,9.63054 -9.66797,9.65429 -0.0408,0.0236 -6.89153,2.108 -13.19726,3.54688 -3.15287,0.71943 -6.37567,1.4696 -9.34375,2.34765 -2.96808,0.87808 -5.56535,1.61458 -8.40235,3.67579 -2.83713,2.06128 -4.34171,4.30402 -6.09375,6.85546 -1.75203,2.55145 -3.46099,5.38603 -5.11914,8.16211 -3.31629,5.55221 -7.41257,11.42189 -7.44726,11.45313 -0.0347,0.0313 -6.30306,3.49471 -12.171879,6.21289 -2.934407,1.35909 -5.931631,2.7624 -8.652343,4.23828 -2.720715,1.47588 -5.108507,2.73762 -7.455079,5.34375 -2.34655,2.60611 -3.349899,5.11073 -4.533203,7.9707 -1.183303,2.85998 -2.265774,5.98863 -3.310547,9.04883 -2.089545,6.12042 -4.878793,12.71416 -4.90625,12.75196 -0.02755,0.0379 -5.436238,4.72678 -10.611328,8.60546 -2.587545,1.93935 -5.227736,3.93611 -7.582031,5.94532 -2.354295,2.00918 -4.428251,3.73842 -6.181641,6.77539 -1.753247,3.0367 -2.214242,5.69672 -2.777343,8.74023 -0.563101,3.04351 -0.971375,6.32836 -1.357422,9.53906 -0.772094,6.42144 -2.129105,13.45072 -2.148438,13.49414 -0.01935,0.0435 -4.334727,5.75509 -8.589844,10.625 -2.127556,2.43496 -4.296736,4.93585 -6.18164,7.39063 -1.884904,2.45477 -3.55122,4.5773 -4.634766,7.91211 -1.627888,5.0101 -1.001449,9.05367 -0.648437,13.9043 0.18416,2.53047 0.371012,4.73748 0.591797,7.18945 l -15.4199222,2.75586 a 7.50075,7.50075 0 0 0 -6.1816407,7.38281 l 0,23.7207 -50.5273441,9.0293 a 7.50075,7.50075 0 0 0 -5.798828,9.74609 L -25.09375,495.6953 -60.771484,615.93163 a 7.50075,7.50075 0 0 0 8.507812,9.51563 L 75.599609,602.60352 c 1.031866,2.62644 2.284017,5.1639 4.5,7.625 2.346572,2.60613 4.734362,3.86786 7.455079,5.34375 2.720715,1.47588 5.717934,2.87919 8.652343,4.23828 5.868819,2.71818 12.137159,6.18163 12.171879,6.21289 0.0346,0.0312 4.13097,5.90093 7.44726,11.45312 1.65815,2.77611 3.3671,5.61066 5.11914,8.16211 1.75204,2.55145 3.25661,4.79418 6.09375,6.85547 2.83701,2.06122 5.43426,2.79772 8.40235,3.67578 2.96808,0.87808 6.19088,1.62821 9.34375,2.34766 6.30573,1.43887 13.15649,3.52334 13.19726,3.54687 0.0411,0.0238 5.26942,4.91334 9.66797,9.6543 2.19928,2.37048 4.46075,4.78675 6.70508,6.91797 2.24433,2.13121 4.18145,4.01127 7.38476,5.4375 3.2033,1.4262 5.89689,1.60779 8.98243,1.84961 3.08554,0.24182 6.39569,0.30528 9.6289,0.35351 6.46642,0.0965 13.59734,0.70992 13.64258,0.72461 0.0448,0.0146 6.17824,3.71031 11.4668,7.4336 2.64428,1.86162 5.35755,3.75681 7.99609,5.375 2.63854,1.61817 4.92536,3.0541 8.35547,3.7832 3.43015,0.7291 6.10149,0.34658 9.16992,-0.0586 3.06844,-0.40518 6.31961,-1.03102 9.49219,-1.65625 6.34515,-1.25053 13.44949,-2.13381 13.49609,-2.12891 0.047,0.005 6.81259,2.34447 12.75977,4.88672 2.97359,1.27112 6.02212,2.56152 8.93945,3.5957 2.91733,1.03417 5.45234,1.96289 8.95899,1.96289 3.50665,0 6.03984,-0.92868 8.95703,-1.96289 2.91718,-1.0342 5.96806,-2.32459 8.9414,-3.5957 5.94669,-2.54225 12.71094,-4.88179 12.75782,-4.88672 0.0466,-0.005 7.15094,0.87839 13.49609,2.12891 3.17258,0.62525 6.42375,1.25106 9.49219,1.65625 3.06843,0.40516 5.73977,0.78769 9.16992,0.0586 3.4301,-0.72909 5.71693,-2.16504 8.35547,-3.7832 2.63853,-1.61818 5.35181,-3.51337 7.99609,-5.375 5.28856,-3.72328 11.42203,-7.41905 11.4668,-7.4336 0.0452,-0.0151 7.17616,-0.62812 13.64258,-0.72461 3.23321,-0.0482 6.54336,-0.11169 9.6289,-0.35351 3.08554,-0.24182 5.77913,-0.42342 8.98242,-1.84961 3.20333,-1.42621 5.14044,-3.3063 7.38477,-5.4375 2.24433,-2.13121 4.5058,-4.54749 6.70508,-6.91797 4.39855,-4.74096 9.62684,-9.63055 9.66797,-9.6543 0.0408,-0.0236 6.89154,-2.10799 13.19726,-3.54687 3.15287,-0.71944 6.37567,-1.46959 9.34375,-2.34766 2.96808,-0.87807 5.56535,-1.61458 8.40235,-3.67578 2.83711,-2.06128 4.34171,-4.30402 6.09375,-6.85547 1.75203,-2.55145 3.46099,-5.386 5.11914,-8.16211 3.31629,-5.55219 7.4126,-11.42191 7.44726,-11.45312 0.0347,-0.0313 6.30306,-3.49471 12.17188,-6.21289 2.93441,-1.35909 5.93163,-2.76242 8.65234,-4.23828 2.72071,-1.47588 5.10851,-2.73763 7.45508,-5.34375 2.34654,-2.60611 3.3499,-5.11073 4.5332,-7.97071 1.18331,-2.85996 2.26578,-5.98861 3.31055,-9.04883 2.08955,-6.1204 4.8788,-12.71417 4.90625,-12.75195 0.0276,-0.0379 5.43624,-4.72678 10.61133,-8.60547 2.58754,-1.93933 5.22773,-3.93611 7.58203,-5.94531 2.35429,-2.00919 4.42825,-3.73843 6.18164,-6.77539 1.75325,-3.03672 2.21424,-5.69672 2.77734,-8.74024 0.56311,-3.0435 0.97138,-6.32835 1.35743,-9.53906 0.77209,-6.42142 2.1291,-13.45071 2.14843,-13.49414 0.0194,-0.0435 4.33473,-5.75508 8.58985,-10.625 2.12755,-2.43494 4.29673,-4.93586 6.18164,-7.39062 1.8849,-2.45477 3.55122,-4.5773 4.63476,-7.91211 1.62789,-5.0101 1.00145,-9.05368 0.64844,-13.9043 -0.18416,-2.53048 -0.37101,-4.73749 -0.5918,-7.18945 l 15.41993,-2.75586 a 7.50075,7.50075 0 0 0 6.18164,-7.38281 l 0,-23.72071 50.52734,-9.02929 a 7.50075,7.50075 0 0 0 5.79883,-9.7461 L 634.34961,320.43359 670.02734,200.19727 a 7.50075,7.50075 0 0 0 -8.50781,-9.51563 l -127.86328,22.8457 c -1.03166,-2.62675 -2.28332,-5.16507 -4.5,-7.62695 -2.34657,-2.60614 -4.73436,-3.86787 -7.45508,-5.34375 -2.72071,-1.47588 -5.71793,-2.87919 -8.65234,-4.23828 -5.86882,-2.71818 -12.13717,-6.18164 -12.17188,-6.21289 -0.0347,-0.0312 -4.13097,-5.90093 -7.44726,-11.45313 -1.65815,-2.77609 -3.36711,-5.61065 -5.11914,-8.16211 -1.75204,-2.55145 -3.25661,-4.79418 -6.09375,-6.85546 -2.837,-2.0612 -5.43427,-2.79772 -8.40235,-3.67579 -2.96808,-0.87806 -6.19088,-1.62821 -9.34375,-2.34765 -6.30573,-1.43888 -13.15647,-3.52332 -13.19726,-3.54688 -0.0411,-0.0238 -5.26942,-4.91335 -9.66797,-9.65429 -2.19928,-2.37049 -4.46075,-4.78676 -6.70508,-6.91797 -2.24433,-2.13122 -4.18144,-4.01129 -7.38477,-5.4375 -3.20328,-1.42619 -5.89688,-1.60779 -8.98242,-1.84961 -3.08553,-0.24182 -6.39569,-0.30528 -9.6289,-0.35352 -6.46643,-0.0965 -13.59733,-0.70989 -13.64258,-0.72461 -0.0448,-0.0145 -6.17824,-3.71032 -11.4668,-7.43359 -2.64428,-1.86164 -5.35755,-3.75682 -7.99609,-5.375 -2.63854,-1.61818 -4.92537,-3.05412 -8.35547,-3.7832 -3.43015,-0.7291 -6.10149,-0.34659 -9.16992,0.0586 -3.06844,0.40518 -6.31961,1.03102 -9.49219,1.65625 -6.34515,1.25052 -13.44951,2.13379 -13.49609,2.12891 -0.0469,-0.005 -6.81113,-2.34447 -12.75782,-4.88672 -2.97334,-1.27114 -6.02422,-2.5615 -8.9414,-3.59571 -2.91719,-1.03419 -5.45039,-1.96288 -8.95703,-1.96289 z"
         transform="matrix(1,0.17866616,0,1,0,-54.426703)"
         id="path4322"
         inkscape:connector-curvature="0" />
      <g
         id="g4277">
        <path
           transform="matrix(1,0.17866616,0,1,0,-54.426703)"
           inkscape:connector-curvature="0"
           id="path4224"
           d="m 559.78581,555.37993 c -3.16334,5.47907 -20.22855,15.55045 -23.94728,20.66886 -3.71874,5.11839 -8.02376,24.4606 -12.25713,29.16225 -4.23338,4.70165 -23.01965,11.0049 -27.72129,15.23827 -4.70164,4.23338 -12.93406,22.25785 -18.05245,25.9766 -5.1184,3.71872 -24.80465,5.97834 -30.28372,9.14169 -5.47907,3.16334 -17.2791,19.08232 -23.05881,21.65562 -5.77972,2.57329 -25.50557,0.69054 -31.52261,2.64559 -6.01703,1.95506 -20.86894,15.07281 -27.05737,16.38821 -6.18844,1.31538 -25.0918,-4.62747 -31.38382,-3.96615 -6.29203,0.66131 -23.54671,10.40453 -29.8734,10.40453 -6.32669,0 -23.58137,-9.74322 -29.8734,-10.40453 -6.29202,-0.66132 -25.19538,5.28153 -31.38382,3.96613 -6.18844,-1.31538 -21.04034,-14.43313 -27.05737,-16.38819 -6.01704,-1.95505 -25.7429,-0.0723 -31.52261,-2.64559 -5.77971,-2.5733 -17.57974,-18.49228 -23.05881,-21.65562 -5.47907,-3.16335 -25.16532,-5.42297 -30.28371,-9.14171 -5.11841,-3.71873 -13.35082,-21.7432 -18.05246,-25.97658 -4.70164,-4.23337 -23.487909,-10.53662 -27.721286,-15.23828 -4.233377,-4.70164 -8.538392,-24.04385 -12.257133,-29.16224 -3.718728,-5.11841 -20.783947,-15.18979 -23.947286,-20.66887 -3.163352,-5.47907 -3.352823,-25.29367 -5.926117,-31.07338 -2.573294,-5.77972 -17.171624,-19.17908 -19.126677,-25.19612 -1.95506,-6.01704 1.979298,-25.43804 0.663903,-31.62647 -1.315396,-6.18843 -12.808836,-22.33015 -13.470153,-28.62218 -0.661316,-6.29203 7.22492,-24.47063 7.22492,-30.79732 0,-6.32668 -7.886236,-24.50529 -7.22492,-30.79731 0.661317,-6.29204 12.154757,-22.43375 13.470153,-28.62219 1.315395,-6.18844 -2.618963,-25.60944 -0.663903,-31.62647 1.955053,-6.01704 16.553383,-19.4164 19.126677,-25.19611 2.573294,-5.77971 2.762777,-25.59432 5.926117,-31.07339 3.163339,-5.47907 20.228558,-15.55046 23.947286,-20.66886 3.718741,-5.11839 8.023756,-24.46061 12.257133,-29.16225 4.233377,-4.70165 23.019646,-11.00489 27.721286,-15.23827 4.70164,-4.23339 12.93406,-22.25787 18.05246,-25.97659 5.11839,-3.71873 24.80464,-5.97836 30.28371,-9.1417 5.47907,-3.16334 17.2791,-19.08233 23.05881,-21.65563 5.77972,-2.57329 25.50557,-0.69053 31.52261,-2.64558 6.01703,-1.95506 20.86894,-15.07281 27.05737,-16.3882 6.18844,-1.3154 25.0918,4.62746 31.38382,3.96613 6.29203,-0.66132 23.54671,-10.40452 29.8734,-10.40452 6.32669,0 23.58137,9.7432 29.8734,10.40452 6.29202,0.66133 25.19538,-5.28153 31.38382,-3.96613 6.18844,1.31539 21.04034,14.43314 27.05737,16.3882 6.01704,1.95505 25.7429,0.0723 31.52261,2.64558 5.77971,2.5733 17.57974,18.49229 23.05881,21.65563 5.47907,3.16334 25.16532,5.42297 30.28372,9.1417 5.1184,3.71872 13.35081,21.7432 18.05245,25.97659 4.70164,4.23338 23.48791,10.53662 27.72129,15.23827 4.23337,4.70164 8.53839,24.04386 12.25713,29.16225 3.71873,5.1184 20.78394,15.18979 23.94728,20.66886 3.16336,5.47907 3.35283,25.29368 5.92612,31.07339 2.5733,5.77971 17.17163,19.17907 19.12668,25.19611 1.95506,6.01703 -1.9793,25.43803 -0.6639,31.62647 1.31539,6.18844 12.80883,22.33015 13.47015,28.62219 0.66132,6.29202 -7.22492,24.47063 -7.22492,30.79731 0,6.32669 7.88624,24.50529 7.22492,30.79732 -0.66132,6.29204 -12.15476,22.43375 -13.47015,28.62218 -1.3154,6.18843 2.61896,25.60943 0.6639,31.62647 -1.95505,6.01704 -16.55338,19.4164 -19.12668,25.19612 -2.57329,5.77971 -2.76277,25.59431 -5.92612,31.07339 z"
           style="color:#000000;clip-rule:nonzero;display:inline;overflow:visible;visibility:visible;opacity:1;isolation:auto;mix-blend-mode:normal;color-interpolation:sRGB;color-interpolation-filters:linearRGB;solid-color:#000000;solid-opacity:1;fill:#a02c2c;fill-opacity:1;fill-rule:nonzero;stroke:none;stroke-width:15;stroke-linecap:butt;stroke-linejoin:miter;stroke-miterlimit:4;stroke-dasharray:none;stroke-dashoffset:0;stroke-opacity:1;color-rendering:auto;image-rendering:auto;shape-rendering:auto;text-rendering:auto;enable-background:accumulate" />
        <path
           transform="matrix(1,0.17866616,0,1,0,-54.426703)"
           id="path4230"
           d="m 304.62695,171.56445 a 236.5,236.5 0 0 0 -236.498044,236.5 236.5,236.5 0 0 0 236.500004,236.5 236.5,236.5 0 0 0 236.5,-236.5 236.5,236.5 0 0 0 -236.50196,-236.5 z m 0,40 a 196.5,196.5 0 0 1 196.50196,196.5 196.5,196.5 0 0 1 -196.5,196.5 196.5,196.5 0 0 1 -196.5,-196.5 196.5,196.5 0 0 1 196.49804,-196.5 z"
           style="color:#000000;clip-rule:nonzero;display:inline;overflow:visible;visibility:visible;opacity:1;isolation:auto;mix-blend-mode:normal;color-interpolation:sRGB;color-interpolation-filters:linearRGB;solid-color:#000000;solid-opacity:1;fill:#c8beb7;fill-opacity:1;fill-rule:nonzero;stroke:none;stroke-width:15;stroke-linecap:butt;stroke-linejoin:miter;stroke-miterlimit:4;stroke-dasharray:none;stroke-dashoffset:0;stroke-opacity:1;color-rendering:auto;image-rendering:auto;shape-rendering:auto;text-rendering:auto;enable-background:accumulate"
           inkscape:connector-curvature="0" />
        <path
           transform="matrix(1,0.17866616,0,1,0,-54.426703)"
           inkscape:connector-curvature="0"
           id="path4237"
           d="m 299.24805,165.67188 c -71.61847,1.51981 -141.80024,36.37859 -185.62174,93.16783 -43.863947,55.94924 -61.47176,131.643 -45.762541,201.09282 15.33633,71.11423 64.436321,134.04574 130.002001,165.71837 65.53931,32.45823 145.87454,33.04858 211.65352,0.90827 62.72255,-29.9718 111.3716,-87.96927 129.08301,-155.28809 18.91902,-69.13392 5.21344,-146.39027 -37.01334,-204.40697 -38.18477,-53.47282 -98.77827,-90.32648 -164.00242,-98.86789 -12.69357,-1.74878 -25.5242,-2.58495 -38.33849,-2.32434 z m 4.67773,52.01171 c 68.23401,-0.88334 135.28113,38.50257 167.55645,98.72813 30.69008,55.06249 31.31855,124.96186 1.5494,180.52035 -29.39631,56.08667 -87.96676,95.66585 -151.24257,100.73981 -56.62321,5.27779 -115.76092,-16.38091 -154.9173,-58.22682 -38.79418,-40.52894 -58.25032,-98.15118 -51.33677,-153.7346 6.91891,-60.56958 45.01866,-117.0267 99.06071,-145.36671 27.46149,-14.67396 58.34713,-22.53917 89.33008,-22.66016 z"
           style="color:#000000;clip-rule:nonzero;display:inline;overflow:visible;visibility:visible;opacity:1;isolation:auto;mix-blend-mode:normal;color-interpolation:sRGB;color-interpolation-filters:linearRGB;solid-color:#000000;solid-opacity:1;fill:none;fill-opacity:1;fill-rule:nonzero;stroke:#ffffff;stroke-width:1;stroke-linecap:butt;stroke-linejoin:miter;stroke-miterlimit:4;stroke-dasharray:6, 6;stroke-dashoffset:0;stroke-opacity:1;color-rendering:auto;image-rendering:auto;shape-rendering:auto;text-rendering:auto;enable-background:accumulate" />
        <circle
           transform="matrix(1,0.17866616,0,1,0,-54.426703)"
           r="183.5"
           cy="408.06445"
           cx="304.62793"
           id="path4245"
           style="color:#000000;clip-rule:nonzero;display:inline;overflow:visible;visibility:visible;opacity:1;isolation:auto;mix-blend-mode:normal;color-interpolation:sRGB;color-interpolation-filters:linearRGB;solid-color:#000000;solid-opacity:1;fill:#6c535d;fill-opacity:1;fill-rule:nonzero;stroke:none;stroke-width:1;stroke-linecap:butt;stroke-linejoin:miter;stroke-miterlimit:4;stroke-dasharray:6, 6;stroke-dashoffset:0;stroke-opacity:1;color-rendering:auto;image-rendering:auto;shape-rendering:auto;text-rendering:auto;enable-background:accumulate" />
        <path
           transform="matrix(1,0.17866616,0,1,0,-54.426703)"
           inkscape:connector-curvature="0"
           id="rect4249"
           d="m 304.62793,239.56445 a 168.5,168.5 0 0 0 -16.5,0.97852 l 0,335.19531 a 168.5,168.5 0 0 0 16.5,0.82617 168.5,168.5 0 0 0 16.5,-0.97851 l 0,-335.19532 a 168.5,168.5 0 0 0 -16.5,-0.82617 z m 34.5215,3.62696 0,329.60156 a 168.5,168.5 0 0 0 33,-10.57422 l 0,-308.43359 a 168.5,168.5 0 0 0 -33,-10.59375 z m -69.043,0.14453 a 168.5,168.5 0 0 0 -33,10.57226 l 0,308.43555 a 168.5,168.5 0 0 0 33,10.59375 l 0,-329.60156 z m 120.0645,19.77344 0,289.89453 a 168.5,168.5 0 0 0 33,-25.29688 l 0,-239.20703 a 168.5,168.5 0 0 0 -33,-25.39062 z m -171.086,0.0137 a 168.5,168.5 0 0 0 -33,25.29687 l 0,239.21094 a 168.5,168.5 0 0 0 33,25.38867 l 0,-289.89648 z m -51.0214,46.50195 a 168.5,168.5 0 0 0 -31.9356,98.43945 168.5,168.5 0 0 0 31.9356,98.34766 l 0,-196.78711 z m 273.1269,0.0918 0,196.78711 a 168.5,168.5 0 0 0 31.9375,-98.43946 168.5,168.5 0 0 0 -31.9375,-98.34765 z"
           style="color:#000000;clip-rule:nonzero;display:inline;overflow:visible;visibility:visible;opacity:0.10700001;isolation:auto;mix-blend-mode:normal;color-interpolation:sRGB;color-interpolation-filters:linearRGB;solid-color:#000000;solid-opacity:1;fill:#ffffff;fill-opacity:1;fill-rule:nonzero;stroke:none;stroke-width:1;stroke-linecap:butt;stroke-linejoin:miter;stroke-miterlimit:4;stroke-dasharray:6, 6;stroke-dashoffset:0;stroke-opacity:1;color-rendering:auto;image-rendering:auto;shape-rendering:auto;text-rendering:auto;enable-background:accumulate" />
        <path
           inkscape:connector-curvature="0"
           style="color:#000000;font-style:normal;font-variant:normal;font-weight:normal;font-stretch:normal;font-size:medium;line-height:normal;font-family:sans-serif;text-indent:0;text-align:start;text-decoration:none;text-decoration-line:none;text-decoration-style:solid;text-decoration-color:#000000;letter-spacing:normal;word-spacing:normal;text-transform:none;direction:ltr;block-progression:tb;writing-mode:lr-tb;baseline-shift:baseline;text-anchor:start;white-space:normal;clip-rule:nonzero;display:inline;overflow:visible;visibility:visible;opacity:1;isolation:auto;mix-blend-mode:normal;color-interpolation:sRGB;color-interpolation-filters:linearRGB;solid-color:#000000;solid-opacity:1;fill:#c8beb7;fill-opacity:1;fill-rule:nonzero;stroke:none;stroke-width:15;stroke-linecap:butt;stroke-linejoin:miter;stroke-miterlimit:4;stroke-dasharray:none;stroke-dashoffset:0;stroke-opacity:1;color-rendering:auto;image-rendering:auto;shape-rendering:auto;text-rendering:auto;enable-background:accumulate"
           d="m 528.12891,262.06445 0,7.5 0,22.5 -525.0019569,0 0,30 -56.7089841,0 36.349609,116 -36.349609,116 134.710937,0 0,-30 525.000004,0 0,-30 56.70898,0 -36.34961,-116 36.34961,-116 -134.70898,0 z"
           id="path4216" />
        <path
           inkscape:connector-curvature="0"
           style="color:#000000;font-style:normal;font-variant:normal;font-weight:normal;font-stretch:normal;font-size:medium;line-height:normal;font-family:sans-serif;text-indent:0;text-align:start;text-decoration:none;text-decoration-line:none;text-decoration-style:solid;text-decoration-color:#000000;letter-spacing:normal;word-spacing:normal;text-transform:none;direction:ltr;block-progression:tb;writing-mode:lr-tb;baseline-shift:baseline;text-anchor:start;white-space:normal;clip-rule:nonzero;display:inline;overflow:visible;visibility:visible;opacity:1;isolation:auto;mix-blend-mode:normal;color-interpolation:sRGB;color-interpolation-filters:linearRGB;solid-color:#000000;solid-opacity:1;fill:#a02c2c;fill-opacity:1;fill-rule:nonzero;stroke:none;stroke-width:15;stroke-linecap:butt;stroke-linejoin:miter;stroke-miterlimit:4;stroke-dasharray:none;stroke-dashoffset:0;stroke-opacity:1;color-rendering:auto;image-rendering:auto;shape-rendering:auto;text-rendering:auto;enable-background:accumulate"
           d="m 528.12891,262.06445 0,7.5 0,22.5 -525.0019569,0 0,30 -56.7089841,0 36.349609,116 -36.349609,116 134.710937,0 0,-30 525.000004,0 0,-30 56.70898,0 -36.34961,-116 36.34961,-116 -134.70898,0 z m 7.5,7.5 117,0 -34,108.5 34,108.5 -54,0 0,30 -525.000004,0 0,30 -117.001953,0 34.0000001,-108.5 -34.0000001,-108.5 54,0 0,-30 525.001957,0 0,-30 z m 0.0898,0.31446 0,29.68554 62.91016,0 -62.91016,-29.68554 z M 10.626953,516.56445 73.537109,546.25 l 0,-29.68555 -62.910156,0 z"
           id="path4202" />
        <path
           id="path4270"
           d="m 102.66406,321.36133 c -20.635135,0 -41.269529,14.04642 -41.269529,32.2539 0,25.83727 37.455078,32.94683 37.455078,65.54688 0,12.83194 -5.375259,24.79687 -19.074218,24.79687 -8.150014,0 -17.167969,-5.02838 -17.167969,-16.64648 0,-11.96492 6.243294,-17.86039 20.289062,-19.07422 -1.387237,-6.24257 -6.243671,-8.84375 -14.046875,-8.84375 -13.35215,0 -25.490234,8.67067 -25.490234,24.9707 0,24.97025 24.449903,27.91797 38.322266,27.91797 27.918129,0 45.953129,-15.78043 45.953129,-40.23047 0,-38.66921 -39.015629,-40.23056 -39.015629,-67.45507 0,-9.53725 6.5897,-15.08594 16.126949,-15.08594 9.19044,0 12.65821,5.54998 12.65821,11.61914 0,5.72235 -3.12276,12.13764 -7.80469,14.91211 2.25426,2.60107 5.03022,3.64258 7.80469,3.64258 9.01703,0 14.39258,-7.63157 14.39258,-17.51563 0,-19.42131 -19.94238,-20.80859 -29.13282,-20.80859 z m 291.43946,8.67187 -25.66407,3.4668 -19.16406,89.87305 c -7.46009,7.57878 -16.46112,13.30273 -27.37305,13.30273 -10.57768,0 -12.6582,-8.32383 -12.6582,-18.55469 0,-18.72769 9.36371,-46.99218 23.92969,-46.99218 3.8149,0 6.41601,1.73477 6.41601,5.89648 0,1.38724 -0.34697,2.94802 -0.86718,4.85547 2.25426,-0.69362 3.98818,-1.04102 5.54882,-1.04102 2.08086,0 3.46697,0.5208 4.33399,1.04102 0.69362,-2.25426 0.86719,-3.81521 0.86719,-5.72266 0,-9.53725 -9.71037,-11.96484 -19.07422,-11.96484 -18.66357,0 -30.32624,10.3073 -37.01953,23.80273 -2.18655,1.18942 -4.62278,2.03516 -7.70508,2.03516 -2.42767,0 -3.98888,-0.52012 -5.0293,-1.56055 -0.34681,-12.65853 -4.50704,-25.49218 -20.98047,-25.49218 -23.92983,0 -45.60547,18.38154 -45.60547,61.03906 0,20.63514 7.97501,28.4375 26.5293,28.4375 17.34045,0 36.24243,-17.16521 39.53711,-52.01953 3.39954,-0.93781 6.67498,-2.22007 9.73633,-3.75782 -2.82001,8.65486 -4.02735,17.92082 -4.02735,26.29883 0,20.46174 9.36328,28.43946 23.75586,28.43946 19.01707,0 29.83803,-8.32267 37.30469,-16.88086 l -3.59961,16.88086 24.9707,0 9.88477,-46.64649 c 3.6415,-2.42767 6.76255,-3.81445 11.09766,-3.81445 4.68192,0 7.97656,3.9879 7.97656,10.23047 0,1.38723 -0.17272,2.94717 -0.51953,4.50781 l -1.9082,7.97656 c -0.86703,3.29469 -1.21485,6.41694 -1.21485,9.19141 0,12.65853 8.32363,18.55469 21.67578,18.55469 6.58233,0 13.89984,-5.47277 20.60157,-12 4.13796,7.18451 11.49498,12 21.75781,12 15.5887,0 28.38985,-8.51377 38.06836,-19.71485 l -4.17969,19.71485 24.96875,0 14.39258,-67.97461 c 3.98831,-3.6415 6.7627,-5.54883 11.96484,-5.54883 5.20213,0 0.34795,11.44336 10.05859,11.44336 8.49682,0 13.00586,-7.45623 13.00586,-13.52539 0,-6.58937 -4.68311,-11.09766 -12.48632,-11.09766 -7.28299,0 -14.21838,3.81459 -20.46094,8.66992 l 1.90625,-8.66992 -24.96875,0 -10.88086,51.32813 -0.29102,0 c -6.06916,12.83194 -20.63598,22.88867 -29.13281,22.88867 -6.76277,0 -14.21875,-3.46741 -14.21875,-14.91211 0,-2.08085 0.17468,-4.68256 0.52149,-7.45703 16.47343,-2.08086 39.18945,-14.2177 39.18945,-35.37305 0,-12.13832 -7.9781,-18.03516 -22.19727,-18.03516 -31.55963,0 -40.92187,38.66903 -40.92187,60.69141 0,3.39756 0.47291,6.67629 1.39258,9.7168 -1.88253,1.26412 -3.79354,2.07617 -5.77735,2.07617 -6.76278,0 -8.66992,-2.60112 -8.66992,-6.41602 0,-1.73405 0.34698,-3.64333 0.86719,-5.55078 l 2.42773,-9.88281 c 0.34681,-1.38723 0.51953,-2.9487 0.51953,-4.33594 0,-11.4447 -10.75138,-21.50195 -20.11523,-21.50195 -1.56064,0 -2.94717,0.17467 -4.50781,0.52148 l 35.20117,-23.75781 -18.72852,0 c 0,-0.17341 -20.46145,15.60745 -33.46679,26.01172 l 13.00586,-60.69141 z m -246.82032,34.67969 -27.57031,130.05469 26.18359,-6.24414 9.01758,-42.48242 c 5.20213,3.29468 10.57648,5.20117 16.29883,5.20117 17.68727,0 32.60102,-12.65944 37.97656,-49.94141 0.69362,-4.50852 1.03907,-8.49523 1.03907,-12.13672 0,-17.86067 -8.49523,-24.27734 -26.5293,-24.27734 -4.33511,0 -8.49717,1.21364 -12.13867,3.12109 l 0.69336,-3.29492 -24.97071,0 z m 331.31641,7.63086 c 5.20214,0 6.07031,6.06945 6.07031,9.71094 -0.1734,12.31172 -11.44522,26.01018 -27.39844,26.18359 3.6415,-16.30003 11.61748,-35.89453 21.32813,-35.89453 z m -218.24219,0.86719 c 4.85533,0 6.76299,3.29327 7.2832,9.01562 -4.68191,1.73404 -7.63085,7.10994 -7.63085,12.13867 0,4.16171 2.25446,7.80274 7.2832,7.80274 -2.08086,16.82024 -7.97701,33.46875 -18.55469,33.46875 -6.76278,0 -11.61719,-2.77542 -11.61719,-13.17969 0,-13.87236 6.93631,-49.24609 23.23633,-49.24609 z m -80.82031,0.17187 c 5.54895,0 9.71094,2.08206 9.71094,12.48633 0,4.16171 -0.69522,9.88387 -2.25586,17.51367 -5.72235,27.57132 -9.88251,35.02735 -18.55274,35.02735 -2.77447,0 -7.10978,1.8e-4 -11.27148,-3.1211 l 12.48437,-58.26367 c 3.29469,-2.25426 6.59008,-3.64258 9.88477,-3.64258 z"
           style="font-style:normal;font-variant:normal;font-weight:normal;font-stretch:normal;font-size:medium;line-height:125%;font-family:'Lobster 1.3';-inkscape-font-specification:'Lobster 1.3, Normal';text-align:start;letter-spacing:0px;word-spacing:0px;writing-mode:lr-tb;text-anchor:start;opacity:1;fill:#ffffff;fill-opacity:1;stroke:#ffffff;stroke-width:7;stroke-linecap:butt;stroke-linejoin:round;stroke-miterlimit:4;stroke-dasharray:none;stroke-opacity:1"
           inkscape:connector-curvature="0" />
        <path
           inkscape:connector-curvature="0"
           style="font-style:normal;font-variant:normal;font-weight:normal;font-stretch:normal;font-size:medium;line-height:125%;font-family:'Lobster 1.3';-inkscape-font-specification:'Lobster 1.3, Normal';text-align:start;letter-spacing:0px;word-spacing:0px;writing-mode:lr-tb;text-anchor:start;opacity:1;fill:#a02c2c;fill-opacity:1;stroke:none;stroke-width:1px;stroke-linecap:butt;stroke-linejoin:miter;stroke-opacity:1"
           d="m 102.66406,321.36133 c -20.635135,0 -41.269529,14.04642 -41.269529,32.2539 0,25.83727 37.455078,32.94683 37.455078,65.54688 0,12.83194 -5.375259,24.79687 -19.074218,24.79687 -8.150014,0 -17.167969,-5.02838 -17.167969,-16.64648 0,-11.96492 6.243294,-17.86039 20.289062,-19.07422 -1.387237,-6.24257 -6.243671,-8.84375 -14.046875,-8.84375 -13.35215,0 -25.490234,8.67067 -25.490234,24.9707 0,24.97025 24.449903,27.91797 38.322266,27.91797 27.918129,0 45.953129,-15.78043 45.953129,-40.23047 0,-38.66921 -39.015629,-40.23056 -39.015629,-67.45507 0,-9.53725 6.5897,-15.08594 16.126949,-15.08594 9.19044,0 12.65821,5.54998 12.65821,11.61914 0,5.72235 -3.12276,12.13764 -7.80469,14.91211 2.25426,2.60107 5.03022,3.64258 7.80469,3.64258 9.01703,0 14.39258,-7.63157 14.39258,-17.51563 0,-19.42131 -19.94238,-20.80859 -29.13282,-20.80859 z m 291.43946,8.67187 -25.66407,3.4668 -19.16406,89.87305 c -7.46009,7.57878 -16.46112,13.30273 -27.37305,13.30273 -10.57768,0 -12.6582,-8.32383 -12.6582,-18.55469 0,-18.72769 9.36371,-46.99218 23.92969,-46.99218 3.8149,0 6.41601,1.73477 6.41601,5.89648 0,1.38724 -0.34697,2.94802 -0.86718,4.85547 2.25426,-0.69362 3.98818,-1.04102 5.54882,-1.04102 2.08086,0 3.46697,0.5208 4.33399,1.04102 0.69362,-2.25426 0.86719,-3.81521 0.86719,-5.72266 0,-9.53725 -9.71037,-11.96484 -19.07422,-11.96484 -18.66357,0 -30.32624,10.3073 -37.01953,23.80273 -2.18655,1.18942 -4.62278,2.03516 -7.70508,2.03516 -2.42767,0 -3.98888,-0.52012 -5.0293,-1.56055 -0.34681,-12.65853 -4.50704,-25.49218 -20.98047,-25.49218 -23.92983,0 -45.60547,18.38154 -45.60547,61.03906 0,20.63514 7.97501,28.4375 26.5293,28.4375 17.34045,0 36.24243,-17.16521 39.53711,-52.01953 3.39954,-0.93781 6.67498,-2.22007 9.73633,-3.75782 -2.82001,8.65486 -4.02735,17.92082 -4.02735,26.29883 0,20.46174 9.36328,28.43946 23.75586,28.43946 19.01707,0 29.83803,-8.32267 37.30469,-16.88086 l -3.59961,16.88086 24.9707,0 9.88477,-46.64649 c 3.6415,-2.42767 6.76255,-3.81445 11.09766,-3.81445 4.68192,0 7.97656,3.9879 7.97656,10.23047 0,1.38723 -0.17272,2.94717 -0.51953,4.50781 l -1.9082,7.97656 c -0.86703,3.29469 -1.21485,6.41694 -1.21485,9.19141 0,12.65853 8.32363,18.55469 21.67578,18.55469 6.58233,0 13.89984,-5.47277 20.60157,-12 4.13796,7.18451 11.49498,12 21.75781,12 15.5887,0 28.38985,-8.51377 38.06836,-19.71485 l -4.17969,19.71485 24.96875,0 14.39258,-67.97461 c 3.98831,-3.6415 6.7627,-5.54883 11.96484,-5.54883 5.20213,0 0.34795,11.44336 10.05859,11.44336 8.49682,0 13.00586,-7.45623 13.00586,-13.52539 0,-6.58937 -4.68311,-11.09766 -12.48632,-11.09766 -7.28299,0 -14.21838,3.81459 -20.46094,8.66992 l 1.90625,-8.66992 -24.96875,0 -10.88086,51.32813 -0.29102,0 c -6.06916,12.83194 -20.63598,22.88867 -29.13281,22.88867 -6.76277,0 -14.21875,-3.46741 -14.21875,-14.91211 0,-2.08085 0.17468,-4.68256 0.52149,-7.45703 16.47343,-2.08086 39.18945,-14.2177 39.18945,-35.37305 0,-12.13832 -7.9781,-18.03516 -22.19727,-18.03516 -31.55963,0 -40.92187,38.66903 -40.92187,60.69141 0,3.39756 0.47291,6.67629 1.39258,9.7168 -1.88253,1.26412 -3.79354,2.07617 -5.77735,2.07617 -6.76278,0 -8.66992,-2.60112 -8.66992,-6.41602 0,-1.73405 0.34698,-3.64333 0.86719,-5.55078 l 2.42773,-9.88281 c 0.34681,-1.38723 0.51953,-2.9487 0.51953,-4.33594 0,-11.4447 -10.75138,-21.50195 -20.11523,-21.50195 -1.56064,0 -2.94717,0.17467 -4.50781,0.52148 l 35.20117,-23.75781 -18.72852,0 c 0,-0.17341 -20.46145,15.60745 -33.46679,26.01172 l 13.00586,-60.69141 z m -246.82032,34.67969 -27.57031,130.05469 26.18359,-6.24414 9.01758,-42.48242 c 5.20213,3.29468 10.57648,5.20117 16.29883,5.20117 17.68727,0 32.60102,-12.65944 37.97656,-49.94141 0.69362,-4.50852 1.03907,-8.49523 1.03907,-12.13672 0,-17.86067 -8.49523,-24.27734 -26.5293,-24.27734 -4.33511,0 -8.49717,1.21364 -12.13867,3.12109 l 0.69336,-3.29492 -24.97071,0 z m 331.31641,7.63086 c 5.20214,0 6.07031,6.06945 6.07031,9.71094 -0.1734,12.31172 -11.44522,26.01018 -27.39844,26.18359 3.6415,-16.30003 11.61748,-35.89453 21.32813,-35.89453 z m -218.24219,0.86719 c 4.85533,0 6.76299,3.29327 7.2832,9.01562 -4.68191,1.73404 -7.63085,7.10994 -7.63085,12.13867 0,4.16171 2.25446,7.80274 7.2832,7.80274 -2.08086,16.82024 -7.97701,33.46875 -18.55469,33.46875 -6.76278,0 -11.61719,-2.77542 -11.61719,-13.17969 0,-13.87236 6.93631,-49.24609 23.23633,-49.24609 z m -80.82031,0.17187 c 5.54895,0 9.71094,2.08206 9.71094,12.48633 0,4.16171 -0.69522,9.88387 -2.25586,17.51367 -5.72235,27.57132 -9.88251,35.02735 -18.55274,35.02735 -2.77447,0 -7.10978,1.8e-4 -11.27148,-3.1211 l 12.48437,-58.26367 c 3.29469,-2.25426 6.59008,-3.64258 9.88477,-3.64258 z"
           id="path4141" />
      </g>
    </g>
  </g>
</svg>
